Coordinates
nRows=10
nColumns=24

# SIMM Motion File Header:
name Coordinates
datacolumns 24
datarows 10
otherdata 1
range 1.18199999999999990000 1.19100000000000010000

Units are S.I. units (second, meters, Newtons, ...)
Angles are in degrees.

endheader
time	pelvis_tx	pelvis_ty	pelvis_tz	pelvis_tilt	pelvis_list	pelvis_rotation	hip_flexion_r	hip_adduction_r	hip_rotation_r	knee_angle_r	ankle_angle_r	subtalar_angle_r	mtp_angle_r	hip_flexion_l	hip_adduction_l	hip_rotation_l	knee_angle_l	ankle_angle_l	subtalar_angle_l	mtp_angle_l	lumbar_extension	lumbar_bending	lumbar_rotation
      1.18199999999999990000	      0.03442603271971095300	      0.87669147746814236000	     -0.27388097015906954000	     20.42425203068299700000	     -2.76286713203600520000	      7.19422217385149840000	    -11.79745262148440300000	      8.26131388136038150000	      7.33643161500302470000	    -19.05534047613526700000	      8.72489082719935280000	      0.00000000000002393024	     -0.00000000000002012340	     -2.68183736912125830000	     -8.45648419184677990000	     -1.08847764814532040000	    -64.01047174542699700000	      2.07276911958456370000	     -0.00000000000006544398	      0.00000000000123126009	    -27.92729997334208400000	      7.54587828608656520000	     -1.86749140113924670000
      1.18300000000000010000	      0.03600978904891340100	      0.87715608466869555000	     -0.27384622555026927000	     20.44422926643002500000	     -2.71779028724228940000	      7.11201473651047240000	    -12.02462654265918100000	      8.19449676529182370000	      7.42190597952608220000	    -18.89432940354888000000	      8.71149552135420360000	      0.00000000000002430164	     -0.00000000000002033113	     -2.60065939296754810000	     -8.37943989168759980000	     -1.15816146362097650000	    -63.82697286987836100000	      2.20688340373128340000	     -0.00000000000006539645	      0.00000000000123406159	    -27.95962341975635500000	      7.46724832860407520000	     -1.79623687729980940000
      1.18399999999999990000	      0.03759252860523360600	      0.87761915021935066000	     -0.27381164371028988000	     20.46441681456306200000	     -2.67265907996188950000	      7.02936890457670400000	    -12.25201461472624200000	      8.12682494833468820000	      7.50712879302126890000	    -18.73266816265679000000	      8.69717897585587170000	      0.00000000000002468771	     -0.00000000000002050743	     -2.52086395539329900000	     -8.30234636255780600000	     -1.22852947699094670000	    -63.64037913556417400000	      2.33772259372015510000	     -0.00000000000006534895	      0.00000000000123686285	    -27.99216181422444200000	      7.38842539904493380000	     -1.72495805796349000000
      1.18500000000000010000	      0.03917424623611612300	      0.87808059970633912000	     -0.27377721530858773000	     20.48480894405110700000	     -2.62748850454797860000	      6.94630359524112870000	    -12.47959784057449900000	      8.05831656026257730000	      7.59206424143109880000	    -18.57037547658870100000	      8.68196233584059660000	      0.00000000000002506786	     -0.00000000000002070844	     -2.44244013717979680000	     -8.22522536253938520000	     -1.29955312251408770000	    -63.45070439456601000000	      2.46529965207026790000	     -0.00000000000006530006	      0.00000000000123966353	    -28.02490664222175800000	      7.30942683927062030000	     -1.65366460707371400000
      1.18599999999999990000	      0.04075493742316664600	      0.87854035898829463000	     -0.27374293091006230000	     20.50539954640662900000	     -2.58229373624000800000	      6.86283784408711030000	    -12.70735701481075900000	      7.98899016661643020000	      7.67667659423259160000	    -18.40747004696951100000	      8.66586715853098430000	      0.00000000000002543478	     -0.00000000000002087240	     -2.36537693480160450000	     -8.14809863139146270000	     -1.37120342376796180000	    -63.25796148196259600000	      2.58962892861725000000	     -0.00000000000006525069	      0.00000000000124246263	    -28.05784897262017500000	      7.23027017234149390000	     -1.58236610955242350000
      1.18700000000000010000	      0.04233459827842233500	      0.87899835429545137000	     -0.27370878098026646000	     20.52618215579105200000	     -2.53709015164173570000	      6.77899080020174960000	    -12.93527272608790400000	      7.91886479805450620000	      7.76093019816069420000	    -18.24397059561249200000	      8.64891465118129330000	      0.00000000000002580570	     -0.00000000000002098728	     -2.28966328442796210000	     -8.07098792709791190000	     -1.44345100912174920000	    -63.06216222312648500000	      2.71072610466886800000	     -0.00000000000006520086	      0.00000000000124525969	    -28.09097948758827800000	      7.15097313262804590000	     -1.51107205772439590000
      1.18799999999999990000	      0.04391322554904438700	      0.87945451229205285000	     -0.27367475589055423000	     20.54714995396052800000	     -2.49189332810956720000	      6.69478171195701770000	    -13.16332535992865600000	      7.84795995829098740000	      7.84478951465558530000	    -18.07989589144738900000	      8.63112578513334580000	      0.00000000000002618632	     -0.00000000000002111072	     -2.21528807384579500000	     -7.99391503363173060000	     -1.51626612980264230000	    -62.86331744248205000000	      2.82860813723330430000	     -0.00000000000006515091	      0.00000000000124805530	    -28.12428849833696600000	      7.07155367042384600000	     -1.43979184123153430000
      1.18900000000000010000	      0.04549081663420396400	      0.87990876007152596000	     -0.27364084593382526000	     20.56829576876989700000	     -2.44671902858011150000	      6.61022991234168430000	    -13.39149510794736000000	      7.77629560052210240000	      7.92821916248085760000	    -17.91526471292099000000	      8.61252088842074310000	      0.00000000000002655559	     -0.00000000000002123427	     -2.14224014801444840000	     -7.91690174672036660000	     -1.58961867297027150000	    -62.66143697175749600000	      2.94329320241707170000	     -0.00000000000006510086	      0.00000000000125085154	    -28.15776595349792900000	      6.99202994187301120000	     -1.36853474407672840000
      1.18999999999999990000	      0.04706736957924384500	      0.88036102525269666000	     -0.27360704132441038000	     20.58961208256566900000	     -2.40158321025401820000	      6.52535480494559120000	    -13.61976196473890400000	      7.70389215629318790000	      8.01118394755021330000	    -17.75009592093220000000	      8.59312018187709730000	      0.00000000000002690059	     -0.00000000000002135090	     -2.07050832365707830000	     -7.83996989565763420000	     -1.66347818303285470000	    -62.45652965934041100000	      3.05480064024143070000	     -0.00000000000006504973	      0.00000000000125364798	    -28.19140145833874200000	      6.91242032272489130000	     -1.29730993013580620000
      1.19100000000000010000	      0.04864288308918783600	      0.88081123597413491000	     -0.27357333221479035000	     20.61109103103206400000	     -2.35650200962676060000	      6.44017584897365400000	    -13.84810573686007000000	      7.63077051162410670000	      8.09364890439347380000	    -17.58440842245105500000	      8.57294338015131000000	      0.00000000000002724330	     -0.00000000000002153975	     -2.00008139511252600000	     -7.76314132920107450000	     -1.73781387510291200000	    -62.24860337829711200000	      3.16315089802566570000	     -0.00000000000006499880	      0.00000000000125644491	    -28.22518428326567300000	      6.83274339822445940000	     -1.22612643994460570000
